<svg xmlns="http://www.w3.org/2000/svg"  viewBox="0 0 64 64" width="64px" height="64px"><linearGradient id="~RyIWyCwgC6JzQjaSYAyXa" x1="32" x2="32" y1="8.522" y2="59.979" gradientUnits="userSpaceOnUse"><stop offset="0" stop-color="#1a6dff"/><stop offset="1" stop-color="#c822ff"/></linearGradient><path fill="url(#~RyIWyCwgC6JzQjaSYAyXa)" d="M50,55H14c-2.76,0-5-2.24-5-5V14c0-2.76,2.24-5,5-5h36c2.76,0,5,2.24,5,5v36	C55,52.76,52.76,55,50,55z M14,11c-1.65,0-3,1.35-3,3v36c0,1.65,1.35,3,3,3h36c1.65,0,3-1.35,3-3V14c0-1.65-1.35-3-3-3H14z"/><linearGradient id="~RyIWyCwgC6JzQjaSYAyXb" x1="32" x2="32" y1="21.014" y2="48.048" gradientUnits="userSpaceOnUse"><stop offset="0" stop-color="#6dc7ff"/><stop offset="1" stop-color="#e6abff"/></linearGradient><path fill="url(#~RyIWyCwgC6JzQjaSYAyXb)" d="M32,15l-14,8.5v17L32,49l14-8.5v-17L32,15z M42,38l-10,5.999L22,38V26l10-6l10,6V38z"/></svg>